<?xml version="1.0" standalone="no"?>
<!DOCTYPE svg PUBLIC "-//W3C//DTD SVG 1.1//EN" "http://www.w3.org/Graphics/SVG/1.1/DTD/svg11.dtd" >
<!--
2013-9-30: Created.
-->
<svg>
<metadata>
Created by iconfont
</metadata>
<defs>

<font id="iconfont" horiz-adv-x="1024" >
  <font-face
    font-family="iconfont"
    font-weight="500"
    font-stretch="normal"
    units-per-em="1024"
    ascent="896"
    descent="-128"
  />
    <missing-glyph />
    
    <glyph glyph-name="yooxi" unicode="&#58891;" d="M522.439258 616.3918140000001L69.730643 163.68319899999995 975.145827 163.68319899999995Z"  horiz-adv-x="1024" />

    
    <glyph glyph-name="erji" unicode="&#59071;" d="M893.456828 186.94499499999995M491.889987 558.060291M568.154951 557.006286M973.749526 321.65916300000004c-0.425695 242.50515-198.176548 439.664531-443.663612 439.664531-245.74903 0-448.64609-197.576891-448.64609-440.438151 0-3.202948-0.906649-6.203282-0.906649-8.92016L80.533175 87.086683c0-30.477129 35.526121-46.862307 72.126714-46.862307l57.030901 0c33.196053 0 59.130725 13.405311 59.130725 46.862307L268.821515 308.10547199999996c0 31.408337-24.419156 67.76436-59.130725 67.76436l-67.517743 0c-3.701299 0-7.353478-3.789303-10.915607-4.603855 23.671119 197.62294 194.340173 349.778338 400.824945 349.778338 207.29523 0 378.521986-152.522766 401.124773-351.264179-6.716982 2.273786-13.764492 6.089695-20.913309 6.089695l-67.517743 0c-28.111245 0-61.231573-31.614022-61.231573-59.007929l0-229.773174c0-30.477129 35.117822-46.862307 71.718415-46.862307l57.030901 0c33.196053 0 59.539025 13.405311 59.539025 46.862307L971.832873 308.10547199999996C971.832873 312.692954 975.054241 317.23029399999996 973.749526 321.65916300000004zM142.173047 333.91427799999997l67.517743 0c13.216 0 17.175171-19.827581 17.175171-25.808806l0-221.017766c0-3.942799-2.397606-4.906753-17.175171-4.906753l-57.030901 0c-11.649318 0-30.17116-1.11438-30.17116 4.906753l0 229.762941C122.488729 320.036199 136.561235 333.91427799999997 142.173047 333.91427799999997zM929.877319 87.08770700000002c0-3.942799-2.805906-4.906753-17.58347-4.906753l-57.030901 0c-11.649318 0-29.762861-1.11438-29.762861 4.906753l0 229.762941c0 3.184529 13.664208 17.062608 19.276019 17.062608l67.517743 0c13.216 0 17.58347-19.827581 17.58347-25.808806L929.877319 87.08770700000002 929.877319 87.08770700000002z"  horiz-adv-x="1024" />

    
    <glyph glyph-name="tuandui" unicode="&#58904;" d="M606.6688 785.5104c-126.8992 0-230.1184-103.2448-230.1184-230.144 0-87.7056 49.3312-164.0448 121.6768-202.88-150.6304-46.4128-260.4288-186.9056-260.4288-352.5888 0-12.16 9.8304-21.9648 21.9648-21.9648 12.1344 0 21.9648 9.8048 21.9648 21.9648 0 179.1744 145.792 324.9152 323.328 325.0176 2.432-0.2304 4.8128-0.0512 7.0656 0.4864 124.3648 2.9184 224.6656 104.9088 224.6656 229.9648C836.7872 682.2912 733.5424 785.5104 606.6688 785.5104L606.6688 785.5104zM606.6688 369.2288c-102.656 0-186.1888 83.5072-186.1888 186.1376 0 102.7072 83.5072 186.1888 186.1888 186.1888 102.656 0 186.1632-83.5072 186.1632-186.1888C792.832 452.7104 709.3248 369.2288 606.6688 369.2288L606.6688 369.2288zM867.8656 260.32640000000004c-8.576 8.6016-22.4768 8.6016-31.0784 0.0512-8.576-8.576-8.6016-22.4768-0.0512-31.0784 61.184-61.3376 94.848-142.848 94.848-229.4016 0-12.16 9.8304-21.9648 21.9648-21.9648 12.1344 0 21.9648 9.8048 21.9648 21.9648C975.5392 98.17600000000004 937.3184 190.72000000000003 867.8656 260.32640000000004L867.8656 260.32640000000004zM374.2208 363.59680000000003c0 0 0 0.0512 0 0.0768 0 0.0256 0 0.0512 0 0.0512 0 12.16-9.8304 21.9904-21.9648 21.9904-79.7184 0-144.5632 69.2992-144.5632 154.4448 0 85.1456 64.8448 154.4448 144.5632 154.4448 12.1344 0 21.9648 9.856 21.9648 21.9648 0 12.1344-9.8304 21.9648-21.9648 21.9648-103.936 0-188.4928-89.0112-188.4928-198.4 0-72.832 37.504-136.6016 93.2608-171.0848-118.5792-42.0864-204.2624-160.4096-204.2624-299.52 0-12.1344 9.8304-21.9648 21.9648-21.9648 12.1344 0 21.9648 9.8304 21.9648 21.9648 0 150.016 114.6368 272.0256 255.5904 272.0256C364.3904 341.6064 374.1952 351.43679999999995 374.2208 363.59680000000003L374.2208 363.59680000000003zM374.2208 363.59680000000003"  horiz-adv-x="1024" />

    
    <glyph glyph-name="youhuiquan" unicode="&#59200;" d="M86.853818 612.165818c0 29.230545 4.840727 49.989818 14.522182 62.464 9.681455 12.381091 31.278545 18.618182 64.605091 18.618182h206.848v-810.821818H283.927273c-23.738182 0-47.104 0.279273-70.376728 0.930909a2903.505455 2903.505455 0 0 1-47.662545 0.744727c-29.044364-1.117091-49.524364 3.723636-61.346909 14.615273-11.822545 10.705455-17.687273 31.278545-17.687273 61.626182V193.81527300000005c0 11.822545 1.861818 20.852364 5.585455 26.717091 3.723636 5.957818 11.636364 10.053818 23.458909 12.194909 4.282182 0 10.24 1.582545 17.687273 4.840727a81.92 81.92 0 0 1 22.62109 15.453091 89.274182 89.274182 0 0 1 19.549091 27.554909 96.814545 96.814545 0 0 1 8.005819 41.332364c0 24.948364-6.795636 44.311273-20.293819 58.368-13.405091 14.149818-27.648 22.155636-42.821818 24.296727a52.130909 52.130909 0 0 0-25.786182 10.612364c-5.399273 4.840727-8.098909 13.218909-8.098909 25.134545V612.072727z m134.050909 154.065455V808.4014549999999c0 21.597091 8.378182 41.611636 25.134546 60.043636C262.702545 886.690909 280.762182 896 300.125091 896h222.952727v-129.768727H220.904727z m1316.677818-351.883637a27.461818 27.461818 0 0 1-18.618181-13.777454 47.941818 47.941818 0 0 1-5.585455-23.552c0-8.564364 1.861818-16.942545 5.585455-25.041455 3.723636-8.192 9.960727-13.870545 18.618181-17.128727a37.236364 37.236364 0 0 0 20.200728-19.456c4.840727-9.681455 7.447273-19.921455 8.098909-30.72a83.595636 83.595636 0 0 0-4.096-30.813091 38.912 38.912 0 0 0-14.522182-21.131636c-21.597091-12.939636-32.302545-27.554909-32.302545-43.752728 0-16.290909 10.705455-32.488727 32.302545-48.686545 4.282182-3.258182 8.378182-9.216 12.101818-17.873455 3.723636-8.657455 5.678545-17.221818 5.678546-25.879272a40.401455 40.401455 0 0 0-6.516364-22.807273c-4.282182-6.423273-11.729455-9.588364-22.621091-9.588364h-87.133091c-6.516364 0-10.053818 0.465455-10.519273 1.582546-0.558545 1.024 0.279273 2.978909 2.420364 5.585454a79.406545 79.406545 0 0 0 8.098909 8.936728 44.032 44.032 0 0 1 8.005818 11.450181c5.399273 15.080727 5.399273 28.113455 0 38.81891a67.863273 67.863273 0 0 1-27.461818 27.648 37.888 37.888 0 0 0-18.618182 20.293818 64.698182 64.698182 0 0 0-4.747636 28.392727 75.682909 75.682909 0 0 0 5.585455 25.879273 30.999273 30.999273 0 0 0 14.522181 16.290909 34.350545 34.350545 0 0 1 19.362909 17.780363 60.229818 60.229818 0 0 1 6.516364 27.55491 72.145455 72.145455 0 0 1-4.840727 26.810181 30.533818 30.533818 0 0 1-14.615273 16.942546 46.638545 46.638545 0 0 0-20.107636 19.549091 58.368 58.368 0 0 0-7.261091 29.137454c0 10.798545 2.141091 21.410909 6.516363 31.650909a55.854545 55.854545 0 0 0 20.852364 25.134546 52.875636 52.875636 0 0 1 16.290909 17.687273 56.599273 56.599273 0 0 1 7.168 24.482909 45.800727 45.800727 0 0 1-25.041454 45.428363 49.617455 49.617455 0 0 0-23.272728 23.458909 73.355636 73.355636 0 0 0-7.354181 31.650909 67.956364 67.956364 0 0 0 7.26109 30.72 54.551273 54.551273 0 0 0 20.200728 22.807273c18.338909 9.681455 28.206545 22.993455 29.789091 39.656727 1.675636 16.756364 0.372364 32.209455-3.909819 46.173091a63.488 63.488 0 0 1-19.456 29.230546 53.713455 53.713455 0 0 1-37.050181 13.032727h-775.447273V896h909.498182c7.447273 0 13.963636-2.792727 19.362909-8.192a38.446545 38.446545 0 0 0 10.519273-19.362909 44.218182 44.218182 0 0 0-1.675637-23.552 40.494545 40.494545 0 0 0-15.36-20.293818 74.007273 74.007273 0 0 1-16.942545-21.038546 61.719273 61.719273 0 0 1-8.098909-26.810182 70.004364 70.004364 0 0 1 4.002909-27.554909 34.909091 34.909091 0 0 1 17.780363-20.293818c11.915636-6.516364 20.759273-15.36 26.717091-26.717091a73.541818 73.541818 0 0 0 8.843637-34.071272 60.043636 60.043636 0 0 0-8.843637-31.65091 51.2 51.2 0 0 0-25.134545-21.038545 50.176 50.176 0 0 1-25.786182-18.618182 52.782545 52.782545 0 0 1-2.420364-55.109818 61.44 61.44 0 0 1 23.458909-23.552c10.798545-6.516364 18.618182-15.080727 23.45891-25.972364a69.725091 69.725091 0 0 0-1.675637-62.370909 26.717091 26.717091 0 0 0-21.783273-15.453091z m-210.01309 24.296728a52.317091 52.317091 0 0 1-41.146182-47.010909 49.710545 49.710545 0 0 1 8.005818-29.137455c5.957818-9.774545 14.894545-16.756364 26.624-21.131636a48.779636 48.779636 0 0 0 24.296727-19.456c5.399273-8.657455 8.378182-17.780364 8.843637-27.554909a54.551273 54.551273 0 0 0-5.585455-27.55491 42.728727 42.728727 0 0 0-19.549091-19.54909c-26.810182-12.939636-40.773818-28.578909-41.890909-46.917819-1.024-18.432 9.216-33.047273 30.72-43.752727a58.926545 58.926545 0 0 0 33.140364-49.431273 53.061818 53.061818 0 0 0-5.585455-27.648 35.467636 35.467636 0 0 0-21.131636-17.035636 53.806545 53.806545 0 0 1-29.789091-17.873455 47.476364 47.476364 0 0 1-11.357091-27.554909 49.710545 49.710545 0 0 1 8.098909-29.137454 66.56 66.56 0 0 1 28.206545-24.389818 37.888 37.888 0 0 0 18.618182-20.200728 52.130909 52.130909 0 0 0-4.840727-50.269091 22.993455 22.993455 0 0 0-20.200727-10.519272H468.154182v810.821818h854.574545c8.564364 0 15.266909-3.630545 20.200728-10.612364 4.840727-6.981818 7.447273-14.894545 8.098909-23.552a51.572364 51.572364 0 0 0-5.585455-25.879272 35.095273 35.095273 0 0 0-21.131636-17.873455 49.431273 49.431273 0 0 1-33.978182-41.332364 40.401455 40.401455 0 0 1 6.516364-26.717091 48.779636 48.779636 0 0 1 27.461818-19.54909 56.413091 56.413091 0 0 0 33.140363-46.173091 44.032 44.032 0 0 0-6.516363-25.972364 39.005091 39.005091 0 0 0-23.365818-17.035636zM938.170182 330.00727300000005a91.973818 91.973818 0 0 0-16.849455 1.675636c-6.050909 0.930909-7.261091 4.189091-4.096 9.681455a315.578182 315.578182 0 0 0 15.36 22.714181c9.122909 13.032727 19.362909 26.810182 30.72 41.332364 11.264 14.615273 21.783273 28.392727 31.464728 41.332364 9.681455 13.032727 15.639273 21.131636 17.687272 24.389818 5.492364 8.564364 2.234182 18.897455-9.681454 30.72a89.739636 89.739636 0 0 1-12.846546 9.774545 100.258909 100.258909 0 0 1-17.687272 9.774546c-8.657455 3.258182-14.894545 3.723636-18.618182 1.582545a53.341091 53.341091 0 0 1-13.777455-14.615272l-16.104727-23.45891-27.554909-39.749818-26.530909-38.074182a311.575273 311.575273 0 0 1-13.870546-20.293818c-2.048-4.375273-6.144-5.957818-12.101818-4.840727-5.864727 0.930909-9.867636 3.723636-12.101818 8.098909a167.191273 167.191273 0 0 1-14.522182 18.618182 738.210909 738.210909 0 0 0-27.461818 34.909091c-9.681455 12.939636-19.083636 25.134545-28.206546 36.491636a1076.224 1076.224 0 0 0-18.618181 23.458909c-9.681455 18.338909-19.921455 24.389818-30.72 17.873455a153.506909 153.506909 0 0 1-20.200728-13.870546 139.170909 139.170909 0 0 0-16.942545-12.101818c-10.798545-7.540364-12.381091-17.314909-4.840727-29.137454 18.338909-21.690182 34.443636-41.611636 48.407272-60.043637 11.915636-15.080727 23.272727-29.789091 33.978182-43.752727 10.798545-14.149818 17.221818-22.155636 19.362909-24.389818 2.141091-4.282182 0-6.516364-6.423272-6.516364h-19.456c-5.306182 0-13.032727-0.186182-23.272728-0.744727-10.333091-0.558545-19.828364-0.279273-28.392727 0.837818a32.395636 32.395636 0 0 1-20.945455-6.516364 13.498182 13.498182 0 0 1-4.840727-16.197818 88.622545 88.622545 0 0 0 1.582546-19.549091v-19.362909c0-5.399273 1.582545-8.378182 4.840727-8.936727 3.258182-0.558545 6.981818-0.837818 11.264-0.837818h93.742545c12.939636 0 19.362909-2.792727 19.362909-8.098909v-30.813091c0-5.399273-1.024-8.098909-3.258181-8.098909H687.941818c-6.516364 1.117091-10.798545-0.558545-12.939636-4.840728a56.226909 56.226909 0 0 1-4.840727-14.615272 37.608727 37.608727 0 0 1 0-15.453091 59.578182 59.578182 0 0 0 1.582545-12.101818c0-14.056727 7.074909-21.038545 21.038545-21.038546h96.907637c5.399273 0 8.657455-0.837818 9.681454-2.513454 1.117091-1.582545 1.582545-5.12 1.582546-10.519273 1.117091-5.399273 1.396364-15.173818 0.837818-29.137455-0.558545-14.149818-0.837818-23.272727-0.837818-27.648 0-11.915636 7.074909-17.780364 21.038545-17.780363h51.665455c8.750545 0 13.032727 2.606545 13.032727 8.005818v64.884364c0 10.891636 4.747636 16.290909 14.429091 16.290909h14.615273c7.447273 0 15.825455 0.279273 24.948363 0.837818a510.138182 510.138182 0 0 0 26.717091 0.744727h21.038546c14.987636 0 22.528 5.399273 22.528 16.197818v35.746909c0 9.681455-5.306182 14.615273-16.104728 14.615273H901.026909c-10.705455-2.234182-16.104727 0-16.104727 6.423273 0 3.258182-0.186182 7.261091-0.837818 12.101818a123.997091 123.997091 0 0 0-0.744728 13.777455c0 4.375273 1.861818 7.633455 5.585455 9.867636a24.389818 24.389818 0 0 0 12.101818 3.165091h95.325091c10.798545 0 16.197818 3.723636 16.197818 11.357091v39.005091a20.107636 20.107636 0 0 1-5.585454 12.939636 17.687273 17.687273 0 0 1-13.870546 6.516364h-54.923636z"  horiz-adv-x="1582" />

    
    <glyph glyph-name="mima" unicode="&#58882;" d="M789.142529 495.772666L234.740814 495.772666c-45.925982 0-83.151815-36.968983-83.151815-82.581834l0-385.384277c0-45.613874 37.225833-82.58695 83.151815-82.58695l554.401716 0c45.936215 0 83.165118 36.973076 83.165118 82.58695L872.307647 413.190833C872.307647 458.803683 835.078745 495.772666 789.142529 495.772666zM816.865941 55.330422c0-30.40345-24.822338-55.054897-55.437613-55.054897L262.456039 0.275525000000016c-30.610158 0-55.432497 24.651446-55.432497 55.054897L207.023542 385.661849c0 30.40959 24.822338 55.05285 55.432497 55.05285l498.972289 0c30.615275 0 55.437613-24.644283 55.437613-55.05285L816.865941 55.330422zM705.071785 605.88246l56.175417 0C747.412103 729.7465119999999 641.460002 826.1051170000001 512.669754 826.1051170000001c-138.191362 0-250.218832-110.914112-250.218832-247.74857l0-82.582857 55.606459 0 0 82.582857c0 106.434078 87.123266 192.703907 194.612373 192.703907C610.677928 771.05943 691.56005 699.237661 705.071785 605.88246zM705.071785 605.88246l56.175417 0C747.412103 729.7465119999999 641.460002 826.1051170000001 512.669754 826.1051170000001c-138.191362 0-250.218832-110.914112-250.218832-247.74857l0-82.582857 55.606459 0 0 82.582857c0 106.434078 87.123266 192.703907 194.612373 192.703907C610.677928 771.05943 691.56005 699.237661 705.071785 605.88246zM511.946276 330.607976c-61.241806 0-110.883413-49.297776-110.883413-110.110817 0-60.816111 49.64263-110.113887 110.883413-110.113887 61.237713 0 110.87625 49.298799 110.87625 110.113887C622.822526 281.3102 573.183989 330.607976 511.946276 330.607976zM511.946276 165.441239c-30.614252 0-55.446823 24.650423-55.446823 55.056943 0 30.40345 24.832572 55.05285 55.446823 55.05285 30.618345 0 55.437613-24.6494 55.437613-55.05285C567.38389 190.09166200000004 542.564621 165.441239 511.946276 165.441239z"  horiz-adv-x="1024" />

    
    <glyph glyph-name="shouji" unicode="&#58883;" d="M524.5102222 81.18293332999997c-28.16746667 0-51.08266667-22.91413333-51.08266667-51.08373333 0-28.16746667 22.91626667-51.08373333 51.08266667-51.08373333 28.16853333 0 51.08586667 22.9152 51.08586667 51.08373333C575.5950222 58.268800000000056 552.67875553 81.18293332999997 524.5102222 81.18293332999997zM777.24515553 885.25973333L271.7774222 885.25973333c-42.52266667 0-77.11786667-34.5952-77.11786667-77.11786666l0-848.28373334c0-42.52373333 34.5952-77.11786667 77.11786667-77.11786666l505.46666667 0c42.52266667 0 77.1168 34.59413333 77.1168 77.11786666L854.36088887 808.14186667C854.36195553 850.66453333 819.7678222 885.25973333 777.24515553 885.25973333zM271.7774222 833.84746667l505.46666667 0c14.17493333 0 25.70666667-11.5328 25.70666666-25.70666667l0-635.52853333L246.0718222 172.61226667000005 246.0718222 808.14186667C246.0718222 822.3157333300001 257.60355553 833.84746667 271.7774222 833.84746667zM777.24515553-65.84640000000002L271.7774222-65.84640000000002c-14.17386667 0-25.70666667 11.53066667-25.70666667 25.7056L246.07075553 116.79999999999995l556.88 0 0-156.94186667C802.9518222-54.316799999999944 791.42008887-65.84640000000002 777.24515553-65.84640000000002z"  horiz-adv-x="1024" />

    
    <glyph glyph-name="nv" unicode="&#58896;" d="M870.7 742.7C804.593 808.809 716.695 845.217 623.203 845.219c-93.493 0-181.39-36.409-247.497-102.517-66.111-66.11-102.517-154.006-102.517-247.5-0.001-76.2 24.19-148.678 68.93-208.675l-60.204-60.204-143.73 143.73c-19.995 19.995-52.412 19.995-72.407 0-19.995-19.993-19.995-52.412 0-72.407l143.73-143.73-55.756-55.755c-19.993-19.994-19.993-52.413 0-72.406 19.996-19.996 52.414-19.995 72.409 0l55.754 55.754 143.731-143.73c19.994-19.995 52.411-19.995 72.406 0 19.996 19.995 19.996 52.412 0 72.407l-143.73 143.729 60.205 60.203c59.998-44.738 132.476-68.931 208.676-68.931 93.492 0 181.387 36.408 247.497 102.517S973.217 401.71 973.217 495.203c0 93.492-36.41 181.39-102.517 247.497z m-72.408-422.587c-46.767-46.768-108.95-72.525-175.09-72.525s-128.32 25.757-175.09 72.525c-46.768 46.767-72.524 108.95-72.524 175.09 0.001 66.142 25.756 128.323 72.525 175.09 46.767 46.77 108.95 72.526 175.09 72.526 66.14-0.002 128.322-25.758 175.09-72.527 46.767-46.767 72.524-108.948 72.524-175.088 0-66.142-25.755-128.323-72.525-175.091z"  horiz-adv-x="1024" />

    
    <glyph glyph-name="nan" unicode="&#58880;" d="M802.925714 309.02857100000006c0 79.36-25.234286 154.697143-71.68 217.051429l113.005715 113.005714v-88.137143c0-14.811429 6.034286-27.977143 15.542857-37.668571 9.691429-9.691429 22.857143-15.542857 37.668571-15.542857 29.44 0 53.211429 23.771429 53.211429 53.211428V763.611429c0.182857 1.462857 0.182857 2.925714 0.182857 4.388571 0 14.811429-6.034286 28.16-15.725714 37.851429-9.691429 9.691429-23.04 15.725714-37.668572 15.725714-1.462857 0-2.925714 0-4.388571-0.182857H680.777143c-29.44 0-53.211429-23.771429-53.211429-53.211429 0-14.628571 6.034286-27.977143 15.542857-37.668571 9.691429-9.691429 22.857143-15.542857 37.668572-15.542857h88.137143l-113.005715-113.005715c-62.354286 46.628571-137.691429 71.68-217.051428 71.68-97.28 0-188.525714-37.851429-257.28-106.605714C112.822857 497.737143 74.971429 406.308571 74.971429 309.02857100000006c0-97.28 37.851429-188.708571 106.605714-257.462857 68.754286-68.754286 160.182857-106.605714 257.28-106.605714s188.525714 37.851429 257.28 106.605714c68.937143 68.754286 106.788571 160.182857 106.788571 257.462857zM438.857143 51.382856999999944c-68.754286 0-133.485714 26.697143-182.125714 75.52-48.64 48.64-75.337143 113.371429-75.337143 182.125714s26.697143 133.485714 75.337143 182.125715c48.64 48.64 113.371429 75.52 182.125714 75.52 68.754286 0 133.485714-26.88 182.125714-75.52 48.64-48.64 75.337143-113.371429 75.337143-182.125715s-26.697143-133.485714-75.337143-182.125714c-48.64-48.64-113.188571-75.52-182.125714-75.52z m0 0"  horiz-adv-x="1024" />

    
    <glyph glyph-name="jiangliguanli" unicode="&#59053;" d="M840.6621 225.801198c54.470259 70.208383 87.070659 158.403194 87.070658 254.262674 0 229.735729-186.200399 415.936128-415.936127 415.936128-229.837924 0-415.936128-186.200399-415.936128-415.936128 0-95.757285 32.600399-183.441118 87.070659-254.262674L0.001022 42.36008000000004H170.156711V-128l212.260279 212.260279c40.26507-13.081038 83.902595-20.643513 128.45988-20.643513 44.659481 0 88.19481 7.051497 128.45988 20.643513L851.699226-128V42.36008000000004h171.484231L840.6621 225.801198zM627.993038 452.777645c19.008383 0 34.43992-15.431537 34.43992-34.43992s-15.329341-34.43992-34.43992-34.439921h-81.858683v-49.871457c0-19.008383-15.329341-34.43992-34.43992-34.43992-19.008383 0-34.43992 15.431537-34.43992 34.43992v49.871457h-81.858683c-19.008383 0-34.43992 15.329341-34.43992 34.439921 0 19.008383 15.431537 34.43992 34.43992 34.43992h81.858683v34.644311h-81.858683c-19.008383 0-34.43992 15.329341-34.43992 34.43992 0 19.008383 15.431537 34.43992 34.43992 34.43992h54.061477l-57.331736 78.281837c-11.241517 15.329341-7.869062 36.790419 7.460279 48.031936s36.790419 7.869062 48.031936-7.46028l63.974452-87.377245 63.974451 87.377245c11.241517 15.329341 32.702595 18.599601 48.031936 7.46028 15.329341-11.241517 18.599601-32.702595 7.460279-48.031936l-57.331736-78.281837h54.061477c19.008383 0 34.43992-15.431537 34.43992-34.43992s-15.329341-34.43992-34.43992-34.43992h-81.858683v-34.644311H627.993038z m0 0"  horiz-adv-x="1025" />

    
    <glyph glyph-name="wenti" unicode="&#58889;" d="M511.7 832.1c-247.1 0-447.5-200.3-447.5-447.5s200.3-447.5 447.5-447.5 447.5 200.3 447.5 447.5S758.8 832.1 511.7 832.1z m283.9-731.4c-36.9-36.9-79.8-65.8-127.6-86.1-49.5-20.9-102.1-31.5-156.3-31.5s-106.8 10.6-156.3 31.5c-47.8 20.2-90.8 49.2-127.6 86.1s-65.8 79.8-86.1 127.6c-20.9 49.5-31.5 102.1-31.5 156.3 0 54.2 10.6 106.8 31.5 156.3 20.2 47.8 49.2 90.8 86.1 127.6s79.8 65.8 127.6 86.1c49.5 20.9 102.1 31.5 156.3 31.5s106.8-10.6 156.3-31.5c47.8-20.2 90.8-49.2 127.6-86.1s65.8-79.8 86.1-127.6c20.9-49.5 31.5-102.1 31.5-156.3 0-54.2-10.6-106.8-31.5-156.3-20.2-47.8-49.2-90.7-86.1-127.6zM587.5 367.6c22 20.6 44.8 42 55.7 74.3 5.8 17.3 8.2 35.8 6.8 53.7-1.6 21.2-8.5 40.8-19.9 56.7-16.1 22.4-49.4 49-116.9 49-45.3 0-81.4-13.8-107.5-41.1-39.8-41.7-40.6-100.5-40.4-111v-0.5c0-13.3 10.8-24 24-24 13.3 0 24 10.8 24 24 0 0.6 0 1.1-0.1 1.7-0.1 6 0.5 48.9 27.3 76.9 16.6 17.3 41 26 72.5 26 26 0 60.7-5 78-29.1 14.6-20.4 13-48 6.6-67-7-20.8-23.7-36.5-43-54.6C525.4 375.20000000000005 489 341.1 489 280c0-13.3 10.7-24 24-24 13.2 0 24 10.7 24 24 0 40.3 23.4 62.2 50.5 87.6zM512.2 128.20000000000005h-1.6c-0.6 0-1 0.1-1.6 0.1s-1.1 0.1-1.6 0.2-1 0.2-1.6 0.3l-1.5 0.3c-0.5 0.1-1 0.3-1.5 0.4-0.5 0.1-1 0.3-1.5 0.5l-1.5 0.6c-0.5 0.2-1 0.4-1.4 0.6-0.5 0.2-0.9 0.5-1.4 0.7s-0.9 0.5-1.4 0.8c-0.5 0.3-0.9 0.5-1.3 0.8-0.4 0.3-0.9 0.6-1.3 0.9-0.4 0.3-0.8 0.6-1.3 1-0.4 0.3-0.8 0.7-1.2 1-0.4 0.4-0.8 0.7-1.1 1.1-0.4 0.4-0.7 0.8-1.1 1.2-0.4 0.4-0.7 0.8-1 1.2-0.3 0.4-0.6 0.8-1 1.2s-0.6 0.8-0.9 1.3c-0.3 0.4-0.6 0.9-0.8 1.3-0.3 0.4-0.5 0.9-0.8 1.4-0.2 0.5-0.5 0.9-0.7 1.4-0.2 0.5-0.4 1-0.6 1.4l-0.6 1.5c-0.2 0.5-0.3 1-0.5 1.5-0.1 0.5-0.3 1-0.4 1.5-0.1 0.5-0.3 1-0.3 1.5l-0.3 1.5c-0.1 0.5-0.1 1-0.2 1.6 0 0.5-0.1 1-0.1 1.6v1.6 1.6c0 0.5 0.1 1 0.1 1.6 0.1 0.5 0.1 1 0.2 1.6l0.3 1.5 0.3 1.5c0.1 0.5 0.3 1 0.4 1.5 0.2 0.5 0.3 1 0.5 1.5l0.6 1.5c0.2 0.5 0.4 1 0.6 1.4 0.2 0.5 0.5 0.9 0.7 1.4 0.3 0.5 0.5 0.9 0.8 1.4 0.3 0.4 0.6 0.9 0.8 1.3 0.3 0.4 0.6 0.9 0.9 1.3s0.6 0.8 1 1.2c0.3 0.4 0.7 0.8 1 1.2 0.4 0.4 0.7 0.8 1.1 1.1 0.4 0.4 0.8 0.7 1.1 1.1 0.4 0.4 0.8 0.7 1.2 1 0.4 0.3 0.8 0.7 1.3 1 0.4 0.3 0.9 0.6 1.3 0.9 0.4 0.3 0.9 0.6 1.3 0.8 0.4 0.3 0.9 0.5 1.4 0.8 0.5 0.3 0.9 0.5 1.4 0.7 0.5 0.2 1 0.4 1.4 0.6l1.5 0.6c0.5 0.2 1 0.3 1.5 0.5 0.5 0.1 1 0.3 1.5 0.4l1.5 0.3c0.5 0.1 1 0.2 1.6 0.3 0.5 0.1 1 0.1 1.6 0.2 0.5 0.1 1 0.1 1.6 0.1h3.1c0.5 0 1-0.1 1.6-0.1 0.5 0 1-0.1 1.6-0.2l1.5-0.3 1.5-0.3c0.5-0.1 1-0.3 1.5-0.4 0.5-0.2 1-0.3 1.5-0.5l1.5-0.6c0.5-0.2 1-0.4 1.4-0.6 0.5-0.2 1-0.5 1.4-0.7 0.5-0.2 0.9-0.5 1.4-0.8 0.4-0.3 0.9-0.5 1.3-0.8 0.4-0.3 0.9-0.6 1.3-0.9 0.4-0.3 0.8-0.6 1.2-1 0.4-0.3 0.8-0.7 1.2-1 0.4-0.3 0.8-0.7 1.1-1.1s0.7-0.8 1.1-1.1c0.4-0.4 0.7-0.8 1-1.2 0.3-0.4 0.7-0.8 1-1.2 0.3-0.4 0.6-0.8 0.9-1.3 0.3-0.4 0.6-0.9 0.8-1.3 0.3-0.5 0.5-0.9 0.8-1.4 0.2-0.5 0.5-0.9 0.7-1.4 0.2-0.5 0.4-1 0.6-1.4l0.6-1.5c0.2-0.5 0.3-1 0.5-1.5 0.1-0.5 0.3-1 0.4-1.5l0.3-1.5 0.3-1.5c0.1-0.5 0.1-1 0.2-1.6 0-0.5 0.1-1 0.1-1.6v-3.2c0-0.5-0.1-1-0.1-1.6-0.1-0.5-0.1-1-0.2-1.6l-0.3-1.5-0.3-1.5c-0.1-0.5-0.3-1-0.4-1.5-0.2-0.5-0.3-1-0.5-1.5l-0.6-1.5c-0.2-0.5-0.4-1-0.6-1.4s-0.5-0.9-0.7-1.4c-0.3-0.5-0.5-0.9-0.8-1.4-0.3-0.4-0.5-0.9-0.8-1.3-0.3-0.4-0.6-0.9-0.9-1.3-0.3-0.4-0.6-0.8-1-1.2-0.3-0.4-0.7-0.8-1-1.2-0.3-0.4-0.7-0.8-1.1-1.2s-0.8-0.7-1.1-1.1c-0.4-0.3-0.8-0.7-1.2-1-0.4-0.3-0.8-0.6-1.2-1-0.4-0.3-0.8-0.6-1.3-0.9-0.4-0.3-0.9-0.6-1.3-0.8-0.5-0.3-0.9-0.5-1.4-0.8-0.5-0.2-0.9-0.5-1.4-0.7-0.5-0.2-1-0.4-1.4-0.6l-1.5-0.6c-0.5-0.2-1-0.3-1.5-0.5s-1-0.3-1.5-0.4l-1.5-0.3-1.5-0.3c-0.5-0.1-1-0.1-1.6-0.2-0.5 0-1-0.1-1.6-0.1-0.5 0.1-1 0-1.5 0z"  horiz-adv-x="1024" />

    
    <glyph glyph-name="yiwancheng" unicode="&#58881;" d="M987.45600031 310.10133375a230.976 230.976 0 0 1-164.39466656 68.20266656 230.14399969 230.14399969 0 0 1-164.37333375-68.20266656 230.976 230.976 0 0 1-68.18133375-164.37333375c0-62.208 24.14933344-120.59733375 68.18133375-164.37333375a230.976 230.976 0 0 1 164.37333375-68.20266656c62.22933375 0 120.59733375 24.17066625 164.39466656 68.20266656a230.976 230.976 0 0 1 68.18133282 164.37333375 232.55466656 232.55466656 0 0 1-68.18133282 164.37333375m-12.20266687-80.38400062l-211.98933375-211.98933282c-0.25600031-0.25600031-0.49066688-0.25600031-0.49066594-0.49066687-0.23466656-0.23466656-0.23466656-0.46933313-0.46933406-0.46933313a18.624 18.624 0 0 0-13.41866625-5.50400062 19.24266656 19.24266656 0 0 0-13.39733344 5.50400062l-90.66666656 90.66666656a19.2 19.2 0 0 0 0 27.05066626 19.2 19.2 0 0 0 27.02933343 0l77.26933313-77.29066688 199.80799969 199.78666687a19.2 19.2 0 0 0 27.02933343 0c6.69866625-7.89333375 6.69866625-19.84000031-0.70399968-27.264M859.92533375 769.74933375h-75.37066687V809.472A53.90933344 53.90933344 0 0 1 730.70933375 863.31733313h-6.93333375a53.90933344 53.90933344 0 0 1-53.84533313-53.84533313v-39.72266625H293.54666656V809.472A53.90933344 53.90933344 0 0 1 239.72266625 863.31733313H232.74666687a53.93066625 53.93066625 0 0 1-53.82400031-53.84533313v-39.72266625H103.57333344C64.10666656 769.74933375 32 722.13333375 32 663.50933344v-611.328c0-58.62400031 32.064-106.24000031 83.02933312-106.24000031h537.17333344c-14.84800031 2.85866625-17.70666656 5.73866625-20.82133312 8.59733343a270.78400031 270.78400031 0 0 0-57.89866688 85.90933313 275.54133375 275.54133375 0 0 0-18.66666656 67.24266656H257.408a17.55733312 17.55733312 0 0 0-17.45066625 17.472v3.09333375c0 9.57866625 7.89333375 17.49333375 17.45066625 17.49333375h295.03999969c0 36.58666688 7.16800031 72 21.29066719 105.25866656a274.13333344 274.13333344 0 0 0 39.25333312 65.32266657H257.38666625a17.55733312 17.55733312 0 0 0-17.45066625 17.472v3.34933312c0 9.55733344 7.89333375 17.472 17.45066625 17.472h393.13066688a265.47199969 265.47199969 0 0 0 66.98666718 40.66133344 269.65333313 269.65333313 0 0 0 105.30133313 21.312c36.60799969 0 72.02133375-7.18933313 105.28000031-21.312 0.96-0.46933313 1.92-0.93866625 3.09333281-1.42933313V663.50933344c0 58.64533313-31.80799969 106.24000031-71.29600031 106.24000031M143.08266688 100.52266686999997a24.85333312 24.85333312 0 1 0 24.87466687 24.87466688 24.70399969 24.70399969 0 0 0-24.87466687-24.89600063m0 210.816a24.85333312 24.85333312 0 1 0 24.87466687 24.87466688 24.70399969 24.70399969 0 0 0-24.87466687-24.87466688m0 209.36533313a24.85333312 24.85333312 0 1 0-0.04266657 49.70666719 24.85333312 24.85333312 0 0 0 0.04266657-49.70666719m112.21333312 166.52800031a15.78666656 15.78666656 0 0 0-15.78666656-15.78666656H232.53333313a15.78666656 15.78666656 0 0 0-15.78666657 15.78666656V809.72800031a15.78666656 15.78666656 0 0 0 15.78666656 15.78666656h6.95466657a15.78666656 15.78666656 0 0 0 15.78666656-15.78666656v-122.51733375m452.69333344 122.26133344a15.78666656 15.78666656 0 0 0 15.78666656 15.78666656h6.9546675a15.78666656 15.78666656 0 0 0 15.78666656-15.78666656v-122.496a15.78666656 15.78666656 0 0 0-15.78666656-15.78666656h-6.93333375a15.78666656 15.78666656 0 0 0-15.78666656 15.78666656V809.472m136.85333343-267.02933344c0-9.55733344-7.89333375-17.472-17.472-17.472H257.42933375a17.55733312 17.55733312 0 0 0-17.49333375 17.49333375v3.32799938c0 9.57866625 7.91466656 17.49333375 17.49333375 17.49333375h569.94133313c9.57866625 0 17.49333375-7.91466656 17.49333281-17.49333375v-3.34933313"  horiz-adv-x="1092" />

    
    <glyph glyph-name="kong" unicode="&#58905;" d="M1018.368 539.575c12.361-22.82-14.702 40.448-62.61 40.448l-741.23-0.293c-27.648 0-46.811-13.677-62.903-38.839C135.534 515.6569999999999 0 306.615 0 262.36300000000006v-284.086a80.457 80.457 0 0 1 80.677-80.165h1008.64a80.457 80.457 0 0 1 80.676 80.165V262.36300000000006c0 44.252-151.625 277.212-151.625 277.212s-21.723 40.448 0 0zM753.591 284.30600000000004a37.595 37.595 0 0 1-38.254-28.013c0-2.048 0.293-4.096 0.293-6.144a131.145 131.145 0 0 0-262.364 0c0 2.633 0.293 5.193 0.44 7.826-9.363 26.185-37.304 26.331-37.304 26.331H69.925l117.32 216.064s21.505 38.766 51.786 37.596h698.807c24.356 0 28.525-8.777 46.08-37.596l119.223-216.21H753.664zM332.434 693.614l-89.16 84.626a23.845 23.845 0 1 0 32.913 34.597l89.088-84.627a23.845 23.845 0 0 0-32.84-34.596m245.613 37.376a23.771 23.771 0 0 0-7.387 16.676l-3.219 122.88a23.845 23.845 0 0 0 47.763 1.244l3.145-122.88a23.845 23.845 0 0 0-40.229-17.92m231.132-32.988a23.845 23.845 0 0 0-0.878 33.72L893 820.954a23.845 23.845 0 0 0 34.597-32.914L842.97 698.88a23.845 23.845 0 0 0-33.718-0.878"  horiz-adv-x="1170" />

    
    <glyph glyph-name="icon_normal_yishengjianjie" unicode="&#58899;" d="M886.225455 244.41018199999996a46.871273 46.871273 0 0 1-50.408728-30.580364C782.336 62.69672700000001 655.220364-34.90909099999999 512-34.90909099999999s-270.336 97.652364-323.816727 248.738909a46.778182 46.778182 0 0 1-50.315637 30.580364A46.592 46.592 0 0 0 93.090909 290.909091c0 21.271273 14.568727 39.749818 35.374546 44.916364a46.266182 46.266182 0 0 1 28.113454 20.386909c89.274182 68.933818 217.786182 108.450909 355.421091 108.450909 137.774545 0 266.286545-39.610182 355.607273-108.683637a46.266182 46.266182 0 0 1 27.880727-20.154181 46.312727 46.312727 0 0 0-9.262545-91.415273M512 802.909091c134.283636 0 260.096-37.422545 349.044364-103.237818l-0.605091-227.421091C762.507636 527.173818 640.093091 557.707636 512 557.707636c-128.046545 0-250.461091-30.487273-348.392727-85.457454l-0.605091 227.421091C251.904 765.486545 377.716364 802.909091 512 802.909091m441.344-391.354182l0.837818 310.551273a46.498909 46.498909 0 0 1-16.896 36.026182C831.394909 845.777455 676.352 896 512 896 347.648 896 192.698182 845.730909 86.714182 758.132364a46.498909 46.498909 0 0 1-16.896-35.979637l0.837818-310.597818A138.705455 138.705455 0 0 1 0 290.909091a139.869091 139.869091 0 0 1 111.522909-136.797091C183.947636-18.245817999999986 338.199273-128 512-128c173.800727 0 328.098909 109.754182 400.523636 282.112A139.915636 139.915636 0 0 1 1024 290.909091a138.705455 138.705455 0 0 1-70.656 120.645818M442.181818 634.181818h23.272727v-23.272727a46.545455 46.545455 0 0 1 93.09091 0v23.272727h23.272727a46.545455 46.545455 0 0 1 0 93.090909H558.545455v23.272728a46.545455 46.545455 0 0 1-93.09091 0v-23.272728h-23.272727a46.545455 46.545455 0 0 1 0-93.090909M699.578182 236.35781799999995a46.638545 46.638545 0 0 1-64.605091-12.474182C603.787636 177.71054500000002 559.010909 151.27272700000003 512 151.27272700000003c-47.010909 0-91.834182 26.437818-122.973091 72.610909A46.545455 46.545455 0 0 1 311.854545 171.75272700000005C360.680727 99.60727299999996 433.570909 58.18181800000002 512 58.18181800000002c78.429091 0 151.319273 41.425455 200.145455 113.570909a46.545455 46.545455 0 0 1-12.567273 64.605091"  horiz-adv-x="1024" />

    
    <glyph glyph-name="qiandai" unicode="&#58893;" d="M727.467 586.6669999999999c-12.8 6.4-14.934 21.333-6.4 32 6.4 8.533 12.8 17.066 17.066 25.6 40.534 70.4 38.4 151.466-8.533 177.066-10.667 6.4-21.333 8.534-34.133 8.534-12.8 0-23.467-2.134-36.267-8.534-2.133-2.133-6.4-2.133-8.533-2.133-6.4 0-12.8 2.133-17.067 8.533-27.733 38.4-72.533 64-123.733 64s-96-25.6-123.734-64c-4.266-6.4-10.666-8.533-17.066-8.533-2.134 0-6.4 0-8.534 2.133C349.867 829.867 337.067 832 326.4 832c-12.8 0-23.467-2.133-34.133-8.533-44.8-25.6-49.067-106.667-8.534-177.067 6.4-8.533 10.667-19.2 17.067-25.6 8.533-10.667 6.4-25.6-6.4-32C145.067 509.867 42.667 352 42.667 170.66700000000003c0-91.734 29.866-177.067 78.933-247.467 23.467-32 61.867-51.2 102.4-51.2h576c40.533 0 78.933 19.2 102.4 51.2 49.067 70.4 78.933 155.733 78.933 247.467 0 181.333-102.4 339.2-253.866 416zM512 21.33299999999997c0 117.334-96 213.334-213.333 213.334C416 234.66700000000003 512 330.66700000000003 512 448c0-117.333 96-213.333 213.333-213.333C608 234.66700000000003 512 138.66700000000003 512 21.33299999999997z"  horiz-adv-x="1024" />

    
    <glyph glyph-name="bitian" unicode="&#58898;" d="M64 832h896v-896H64zM867.08 470.1A66.86 66.86 0 0 1 776 510.35L551.2 408.67l27.21 245.18a66.82 66.82 0 1 1-132.82 0l27.21-245.18L248 510.35A66.83 66.83 0 1 1 207 384l241.58-49.88-166.09-182.34A66.84 66.84 0 1 1 390 73.72L512.09 288.1l122.06-214.38a66.79 66.79 0 1 1 107.36 78.06L575.35 334.12 816.94 384a66.79 66.79 0 0 1 50.14 86.1z"  horiz-adv-x="1024" />

    
    <glyph glyph-name="-task" unicode="&#58885;" d="M896 768H746.67V810.67c0 23.57-19.11 42.67-42.67 42.67H320c-23.57 0-42.67-19.11-42.67-42.67v-42.66H128c-23.57 0-42.67-19.11-42.67-42.67v-768c0-23.57 19.11-42.67 42.67-42.67h768c23.56 0 42.67 19.1 42.67 42.66v768c0 23.57-19.11 42.67-42.67 42.67z m-533.33 0h298.67v-42.26c0-0.13-0.01-0.26-0.01-0.4s0.01-0.26 0.01-0.4v-42.27H362.67V768z m490.67-768H170.67V682.67h106.66V640c0-23.57 19.11-42.67 42.67-42.67h384c23.56 0 42.67 19.11 42.67 42.67v42.67h106.67V0zM652.5 478.17L469.32 295.01l-97.83 97.82c-16.64 16.67-43.68 16.67-60.33 0-16.67-16.65-16.67-43.67 0-60.33l128-128c8.33-8.33 19.25-12.5 30.17-12.5 10.92 0 21.85 4.17 30.17 12.5l213.33 213.34c16.67 16.65 16.67 43.67 0 60.33-16.64 16.67-43.68 16.67-60.33 0z"  horiz-adv-x="1024" />

    
    <glyph glyph-name="medicalkit" unicode="&#58895;" d="M896.01 661.33h-128v128c0 23.56-19.1 42.67-42.67 42.67H298.67C275.11 832 256 812.9 256 789.33v-128H128c-23.56 0-42.67-19.1-42.67-42.67v-640c0-23.56 19.1-42.67 42.67-42.67h768c23.56 0 42.67 19.1 42.67 42.67v640c0 23.56-19.1 42.67-42.66 42.67z m-554.67 85.33h341.33v-85.33H341.34v85.33z m512-725.33H170.67V575.99H853.34v-554.66zM640.01 341.33000000000004h-85.33v85.33c0 23.56-19.1 42.67-42.67 42.67-23.56 0-42.67-19.1-42.67-42.67v-85.33h-85.33c-23.56 0-42.67-19.1-42.67-42.67s19.1-42.67 42.67-42.67h85.33v-85.33c0-23.56 19.1-42.67 42.67-42.67 23.56 0 42.67 19.1 42.67 42.67v85.33h85.33c23.56 0 42.67 19.1 42.67 42.67s-19.11 42.67-42.67 42.67z"  horiz-adv-x="1024" />

    
    <glyph glyph-name="doctor" unicode="&#58974;" d="M64 789.333333c0 23.466667 19.2 42.666667 42.666667 42.666667h85.333333c23.466667 0 42.666667-19.2 42.666667-42.666667s-19.2-42.666667-42.666667-42.666666H149.333333v-234.666667c0-106.666667 85.333333-192 192-192s192 85.333333 192 192V746.666667h-42.666666c-23.466667 0-42.666667 19.2-42.666667 42.666666s19.2 42.666667 42.666667 42.666667h85.333333c23.466667 0 42.666667-19.2 42.666667-42.666667v-277.333333c0-138.666667-102.4-253.866667-234.666667-273.066667V213.33333300000004c0-106.666667 85.333333-192 192-192s192 85.333333 192 192v27.733334c-61.866667 19.2-106.666667 74.666667-106.666667 142.933333 0 83.2 66.133333 149.333333 149.333334 149.333333s149.333333-66.133333 149.333333-149.333333c0-68.266667-44.8-123.733333-106.666667-142.933333V213.33333300000004c0-153.6-123.733333-277.333333-277.333333-277.333333s-277.333333 123.733333-277.333333 277.333333v25.6C166.4 258.133333 64 373.33333300000004 64 512V789.333333z m682.666667-405.333333c0-36.266667 27.733333-64 64-64s64 27.733333 64 64-27.733333 64-64 64-64-27.733333-64-64z"  horiz-adv-x="1024" />

    
    <glyph glyph-name="copy" unicode="&#58976;" d="M725.333333-64H128c-23.466667 0-42.666667 19.2-42.666667 42.666667V618.666667c0 23.466667 19.2 42.666667 42.666667 42.666666h128V789.333333c0 23.466667 19.2 42.666667 42.666667 42.666667h597.333333c23.466667 0 42.666667-19.2 42.666667-42.666667v-640c0-23.466667-19.2-42.666667-42.666667-42.666666h-128v-128c0-23.466667-19.2-42.666667-42.666667-42.666667zM170.666667 21.33333300000004h512V576H170.666667v-554.666667z m170.666666 725.333334v-85.333334h384c23.466667 0 42.666667-19.2 42.666667-42.666666v-426.666667h85.333333V746.666667H341.333333zM298.666667 405.333333h128c23.466667 0 42.666667 19.2 42.666666 42.666667s-19.2 42.666667-42.666666 42.666667h-128c-23.466667 0-42.666667-19.2-42.666667-42.666667s19.2-42.666667 42.666667-42.666667M512 320H298.666667c-23.466667 0-42.666667-19.2-42.666667-42.666667s19.2-42.666667 42.666667-42.666666h213.333333c23.466667 0 42.666667 19.2 42.666667 42.666666s-19.2 42.666667-42.666667 42.666667"  horiz-adv-x="1024" />

    
    <glyph glyph-name="profile" unicode="&#58986;" d="M206.933333 27.733333000000016C106.666667 115.20000000000005 42.666667 241.06666700000005 42.666667 384 42.666667 642.133333 253.866667 853.333333 512 853.333333s469.333333-211.2 469.333333-469.333333c0-142.933333-64-268.8-164.266666-356.266667l-2.133334-2.133333C733.866667-42.66666699999996 627.2-85.33333300000004 512-85.33333300000004c-115.2 0-221.866667 42.666667-302.933333 110.933333l-2.133334 2.133333zM512 768C300.8 768 128 595.2 128 384c0-83.2 27.733333-160 72.533333-224 21.333333 85.333333 74.666667 157.866667 151.466667 202.666667-21.333333 29.866667-32 68.266667-32 106.666666 0 106.666667 85.333333 192 192 192s192-85.333333 192-192c0-40.533333-12.8-76.8-32-106.666666 76.8-44.8 132.266667-117.333333 151.466667-202.666667 44.8 64 72.533333 140.8 72.533333 224 0 211.2-172.8 384-384 384z m-106.666667-298.666667c0-59.733333 46.933333-106.666667 106.666667-106.666666s106.666667 46.933333 106.666667 106.666666-46.933333 106.666667-106.666667 106.666667-106.666667-46.933333-106.666667-106.666667z m341.333334-388.266666V85.33333300000004c0 93.866667-55.466667 179.2-142.933334 215.466667-27.733333-14.933333-57.6-23.466667-91.733333-23.466667s-64 8.533333-91.733333 23.466667c-85.333333-36.266667-142.933333-121.6-142.933334-215.466667v-4.266666c64-51.2 145.066667-81.066667 234.666667-81.066667s170.666667 29.866667 234.666667 81.066667z"  horiz-adv-x="1024" />

    
    <glyph glyph-name="yuancircled" unicode="&#58990;" d="M512-85.33333300000004C253.866667-85.33333300000004 42.666667 125.866667 42.666667 384S253.866667 853.333333 512 853.333333s469.333333-211.2 469.333333-469.333333-211.2-469.333333-469.333333-469.333333z m0 853.333333C300.8 768 128 595.2 128 384s172.8-384 384-384 384 172.8 384 384S723.2 768 512 768zM405.333333 341.33333300000004c-23.466667 0-42.666667-19.2-42.666666-42.666666s19.2-42.666667 42.666666-42.666667h64v-106.666667c0-23.466667 19.2-42.666667 42.666667-42.666666s42.666667 19.2 42.666667 42.666666v106.666667h64c23.466667 0 42.666667 19.2 42.666666 42.666667s-19.2 42.666667-42.666666 42.666666h-64v64h64c23.466667 0 42.666667 19.2 42.666666 42.666667s-19.2 42.666667-42.666666 42.666667h-6.4l27.733333 96c6.4 23.466667-6.4 46.933333-29.866667 53.333333-23.466667 6.4-46.933333-6.4-53.333333-29.866667L522.666667 490.666667h-21.333334l-34.133333 117.333333c-6.4 23.466667-29.866667 36.266667-53.333333 29.866667-23.466667-6.4-36.266667-29.866667-29.866667-53.333334l27.733333-96H405.333333c-23.466667 0-42.666667-19.2-42.666666-42.666666s19.2-42.666667 42.666666-42.666667h64v-64h-64z"  horiz-adv-x="1024" />

    
    <glyph glyph-name="upload" unicode="&#58996;" d="M917.333333 452.266667V469.333333c0 164.266667-134.4 298.666667-298.666666 298.666667-113.066667 0-215.466667-64-264.533334-162.133333-21.333333 8.533333-42.666667 12.8-66.133333 12.8C187.733333 618.666667 106.666667 537.6 106.666667 437.333333v-17.066666c-64-38.4-106.666667-108.8-106.666667-185.6 0-117.333333 96-213.333333 213.333333-213.333334h106.666667c23.466667 0 42.666667 19.2 42.666667 42.666667s-19.2 42.666667-42.666667 42.666667h-106.666667c-70.4 0-128 57.6-128 128 0 53.333333 34.133333 102.4 85.333334 119.466666 21.333333 8.533333 34.133333 32 25.6 53.333334-2.133333 10.666667-4.266667 19.2-4.266667 29.866666C192 490.666667 234.666667 533.333333 288 533.333333c21.333333 0 42.666667-6.4 59.733333-21.333333 10.666667-8.533333 25.6-10.666667 38.4-8.533333 12.8 4.266667 23.466667 14.933333 27.733334 27.733333 27.733333 89.6 110.933333 149.333333 204.8 149.333333 117.333333 0 213.333333-96 213.333333-213.333333 0-10.666667 0-21.333333-2.133333-32-2.133333-19.2 6.4-38.4 23.466666-44.8 51.2-25.6 85.333333-76.8 85.333334-134.4 0-76.8-57.6-140.8-132.266667-149.333333H704c-23.466667 0-42.666667-19.2-42.666667-42.666667s19.2-42.666667 42.666667-42.666667h106.666667c4.266667 0 10.666667 0 14.933333 2.133334C938.666667 42.66666699999996 1024 140.79999999999995 1024 256c0 78.933333-40.533333 153.6-106.666667 196.266667M512 64c23.466667 0 42.666667 19.2 42.666667 42.666667v196.266666l34.133333-34.133333c8.533333-8.533333 19.2-12.8 29.866667-12.8 10.666667 0 21.333333 4.266667 29.866666 12.8 17.066667 17.066667 17.066667 42.666667 0 59.733333l-106.666666 106.666667c-2.133333 2.133333-4.266667 4.266667-6.4 4.266667 0 0-2.133333 2.133333-4.266667 2.133333s-2.133333 2.133333-4.266667 2.133333-2.133333 0-4.266666 2.133334c-2.133333 0-2.133333 0-4.266667 2.133333-6.4 2.133333-10.666667 2.133333-17.066667 0-2.133333 0-2.133333 0-4.266666-2.133333-2.133333 0-2.133333 0-4.266667-2.133334-2.133333 0-2.133333-2.133333-4.266667-2.133333s-2.133333-2.133333-4.266666-2.133333c-2.133333-2.133333-4.266667-4.266667-6.4-4.266667l-106.666667-106.666667c-17.066667-17.066667-17.066667-42.666667 0-59.733333 12.8-8.533333 23.466667-12.8 34.133333-12.8s21.333333 4.266667 29.866667 12.8l34.133333 34.133333V106.66666699999996c0-23.466667 19.2-42.666667 42.666667-42.666667"  horiz-adv-x="1024" />

    
    <glyph glyph-name="add-circle-fill" unicode="&#59465;" d="M512-42.66666699999996C276.352-42.66666699999996 85.333333 148.35199999999998 85.333333 384S276.352 810.666667 512 810.666667s426.666667-191.018667 426.666667-426.666667-191.018667-426.666667-426.666667-426.666667z m-42.666667 469.333334H298.666667v-85.333334h170.666666v-170.666666h85.333334v170.666666h170.666666v85.333334h-170.666666V597.333333h-85.333334v-170.666666z"  horiz-adv-x="1024" />

    
    <glyph glyph-name="add-fill" unicode="&#59464;" d="M469.333333 426.666667V682.666667h85.333334v-256h256v-85.333334h-256v-256h-85.333334v256H213.333333v85.333334z"  horiz-adv-x="1024" />

    
    <glyph glyph-name="add-circle-line" unicode="&#59466;" d="M469.333333 426.666667V597.333333h85.333334v-170.666666h170.666666v-85.333334h-170.666666v-170.666666h-85.333334v170.666666H298.666667v85.333334h170.666666z m42.666667-469.333334C276.352-42.66666699999996 85.333333 148.35199999999998 85.333333 384S276.352 810.666667 512 810.666667s426.666667-191.018667 426.666667-426.666667-191.018667-426.666667-426.666667-426.666667z m0 85.333334a341.333333 341.333333 0 1 1 0 682.666666 341.333333 341.333333 0 0 1 0-682.666666z"  horiz-adv-x="1024" />

    
    <glyph glyph-name="arrow-right-s-fill" unicode="&#59470;" d="M682.666667 384l-256-256V640z"  horiz-adv-x="1024" />

    
    <glyph glyph-name="checkbox-blank-circle-line" unicode="&#59475;" d="M512-42.66666699999996C276.352-42.66666699999996 85.333333 148.35199999999998 85.333333 384S276.352 810.666667 512 810.666667s426.666667-191.018667 426.666667-426.666667-191.018667-426.666667-426.666667-426.666667z m0 85.333334a341.333333 341.333333 0 1 1 0 682.666666 341.333333 341.333333 0 0 1 0-682.666666z"  horiz-adv-x="1024" />

    
    <glyph glyph-name="checkbox-circle-fill" unicode="&#59474;" d="M512-42.66666699999996C276.352-42.66666699999996 85.333333 148.35199999999998 85.333333 384S276.352 810.666667 512 810.666667s426.666667-191.018667 426.666667-426.666667-191.018667-426.666667-426.666667-426.666667z m-42.538667 256l301.653334 301.696-60.330667 60.330667-241.322667-241.365333-120.704 120.704-60.330666-60.330667L469.461333 213.33333300000004z"  horiz-adv-x="1024" />

    
    <glyph glyph-name="check-line" unicode="&#59476;" d="M426.666667 248.661333l392.192 392.234667 60.373333-60.330667L426.666667 128l-271.530667 271.530667 60.330667 60.330666z"  horiz-adv-x="1024" />

    
    <glyph glyph-name="close-circle-fill" unicode="&#59477;" d="M512-42.66666699999996C276.352-42.66666699999996 85.333333 148.35199999999998 85.333333 384S276.352 810.666667 512 810.666667s426.666667-191.018667 426.666667-426.666667-191.018667-426.666667-426.666667-426.666667z m0 486.997334L391.338667 565.034667 330.965333 504.661333 451.669333 384l-120.704-120.661333 60.373334-60.373334L512 323.66933300000005l120.661333-120.704 60.373334 60.373334L572.330667 384l120.704 120.661333-60.373334 60.373334L512 444.330667z"  horiz-adv-x="1024" />

    
    <glyph glyph-name="eye-fill" unicode="&#59485;" d="M50.389333 384C90.496 602.4533329999999 281.941333 768 512 768c230.058667 0 421.461333-165.546667 461.610667-384-40.106667-218.453333-231.552-384-461.610667-384-230.058667 0-421.461333 165.546667-461.610667 384zM512 170.66666699999996a213.333333 213.333333 0 1 1 0 426.666666 213.333333 213.333333 0 0 1 0-426.666666z m0 85.333333a128 128 0 1 0 0 256 128 128 0 0 0 0-256z"  horiz-adv-x="1024" />

    
    <glyph glyph-name="eye-close-line" unicode="&#59484;" d="M398.592 94.63466700000004l-82.389333 22.101333 33.578666 125.397333a468.821333 468.821333 0 0 0-138.112 79.872l-91.861333-91.904-60.373333 60.373334 91.904 91.861333a467.498667 467.498667 0 0 0-101.162667 216.32l83.968 15.317333C166.528 434.688 323.370667 298.66666699999996 512 298.66666699999996c188.586667 0 345.472 136.021333 377.856 315.306666l83.968-15.274666a467.498667 467.498667 0 0 0-101.12-216.362667l91.861333-91.861333-60.373333-60.373334-91.861333 91.904a468.821333 468.821333 0 0 0-138.112-79.872l33.578666-125.44-82.389333-22.058666-33.621333 125.44a472.405333 472.405333 0 0 0-159.573334 0l-33.621333-125.44z"  horiz-adv-x="1024" />

    
    <glyph glyph-name="error-warning-fill" unicode="&#59483;" d="M512-42.66666699999996C276.352-42.66666699999996 85.333333 148.35199999999998 85.333333 384S276.352 810.666667 512 810.666667s426.666667-191.018667 426.666667-426.666667-191.018667-426.666667-426.666667-426.666667z m-42.666667 298.666667v-85.333333h85.333334v85.333333h-85.333334z m0 341.333333v-256h85.333334V597.333333h-85.333334z"  horiz-adv-x="1024" />

    
    <glyph glyph-name="more-fill" unicode="&#59496;" d="M213.333333 469.333333c-46.933333 0-85.333333-38.4-85.333333-85.333333s38.4-85.333333 85.333333-85.333333 85.333333 38.4 85.333334 85.333333-38.4 85.333333-85.333334 85.333333z m597.333334 0c-46.933333 0-85.333333-38.4-85.333334-85.333333s38.4-85.333333 85.333334-85.333333 85.333333 38.4 85.333333 85.333333-38.4 85.333333-85.333333 85.333333z m-298.666667 0c-46.933333 0-85.333333-38.4-85.333333-85.333333s38.4-85.333333 85.333333-85.333333 85.333333 38.4 85.333333 85.333333-38.4 85.333333-85.333333 85.333333z"  horiz-adv-x="1024" />

    
    <glyph glyph-name="question-line" unicode="&#59498;" d="M512-42.66666699999996C276.352-42.66666699999996 85.333333 148.35199999999998 85.333333 384S276.352 810.666667 512 810.666667s426.666667-191.018667 426.666667-426.666667-191.018667-426.666667-426.666667-426.666667z m0 85.333334a341.333333 341.333333 0 1 1 0 682.666666 341.333333 341.333333 0 0 1 0-682.666666z m-42.666667 213.333333h85.333334v-85.333333h-85.333334v85.333333z m85.333334 70.186667V298.66666699999996h-85.333334v64a42.666667 42.666667 0 0 0 42.666667 42.666666 64 64 0 1 1-62.762667 76.544l-83.712 16.768A149.376 149.376 0 1 0 554.666667 326.18666700000006z"  horiz-adv-x="1024" />

    
    <glyph glyph-name="share-box-line" unicode="&#59508;" d="M426.666667 768v-85.333333H213.333333v-597.333334h597.333334v213.333334h85.333333v-256a42.666667 42.666667 0 0 0-42.666667-42.666667H170.666667a42.666667 42.666667 0 0 0-42.666667 42.666667V725.333333a42.666667 42.666667 0 0 0 42.666667 42.666667h256z m323.669333-85.333333H554.666667V768h341.333333v-341.333333h-85.333333V622.336l-298.666667-298.666667L451.669333 384l298.666667 298.666667z"  horiz-adv-x="1024" />

    
    <glyph glyph-name="share-fill" unicode="&#59507;" d="M579.242667 159.10400000000004l-218.026667 118.912a149.333333 149.333333 0 1 0 0 211.968l218.026667 118.912a149.333333 149.333333 0 1 0 40.874666-74.88l-218.026666-118.912a149.930667 149.930667 0 0 0 0-62.208l218.026666-118.912a149.333333 149.333333 0 1 0-40.874666-74.88z"  horiz-adv-x="1024" />

    
    <glyph glyph-name="star-fill" unicode="&#59510;" d="M512 116.90666699999997l-300.928-168.448 67.2 338.261333L25.045333 520.874667l342.485334 40.618666L512 874.666667l144.469333-313.173334 342.485334-40.618666-253.226667-234.154667 67.2-338.261333z"  horiz-adv-x="1024" />

    
    <glyph glyph-name="star-line" unicode="&#59512;" d="M512 116.90666699999997l-300.928-168.448 67.2 338.261333L25.045333 520.874667l342.485334 40.618666L512 874.666667l144.469333-313.173334 342.485334-40.618666-253.226667-234.154667 67.2-338.261333L512 116.90666699999997z m0 97.792l181.205333-101.418667-40.490666 203.648 152.448 141.013333-206.208 24.448L512 670.933333l-86.954667-188.586666-206.208-24.405334 152.448-141.013333-40.490666-203.648L512 214.698667z"  horiz-adv-x="1024" />

    
    <glyph glyph-name="arrow-ios-forward-outline" unicode="&#58958;" d="M426.666667 85.33333300000004a42.666667 42.666667 0 0 0-27.306667 9.813334 42.666667 42.666667 0 0 0-5.546667 60.16L584.96 384 400.64 613.12a42.666667 42.666667 0 0 0 6.4 60.16 42.666667 42.666667 0 0 0 62.293333-6.4l206.08-256a42.666667 42.666667 0 0 0 0-54.186667l-213.333333-256A42.666667 42.666667 0 0 0 426.666667 85.33333300000004z"  horiz-adv-x="1024" />

    
    <glyph glyph-name="close-outline" unicode="&#58970;" d="M572.16 384l183.466667 183.04a42.666667 42.666667 0 1 1-60.586667 60.586667L512 444.16l-183.04 183.466667a42.666667 42.666667 0 0 1-60.586667-60.586667l183.466667-183.04-183.466667-183.04a42.666667 42.666667 0 0 1 0-60.586667 42.666667 42.666667 0 0 1 60.586667 0l183.04 183.466667 183.04-183.466667a42.666667 42.666667 0 0 1 60.586667 0 42.666667 42.666667 0 0 1 0 60.586667z"  horiz-adv-x="1024" />

    
    <glyph glyph-name="home-outline" unicode="&#58989;" d="M871.253333 461.653333L542.293333 797.866667a42.666667 42.666667 0 0 1-60.586666 0l-328.96-336.64A85.333333 85.333333 0 0 1 128 400.213333V42.66666699999996a85.333333 85.333333 0 0 1 80.64-85.333334h606.72A85.333333 85.333333 0 0 1 896 42.66666699999996v357.546666a88.32 88.32 0 0 1-24.746667 61.44zM426.666667 42.66666699999996v256h170.666666v-256z m384 0h-128v298.666666a42.666667 42.666667 0 0 1-42.666667 42.666667H384a42.666667 42.666667 0 0 1-42.666667-42.666667v-298.666666H213.333333v359.253333l298.666667 305.066667 298.666667-306.773334z"  horiz-adv-x="1024" />

    
    <glyph glyph-name="pause-circle-outline" unicode="&#59000;" d="M512 810.666667a426.666667 426.666667 0 1 1 426.666667-426.666667A426.666667 426.666667 0 0 1 512 810.666667z m0-768a341.333333 341.333333 0 1 0 341.333333 341.333333 341.333333 341.333333 0 0 0-341.333333-341.333333zM640 554.666667a42.666667 42.666667 0 0 1-42.666667-42.666667v-256a42.666667 42.666667 0 0 1 85.333334 0V512a42.666667 42.666667 0 0 1-42.666667 42.666667zM384 554.666667a42.666667 42.666667 0 0 1-42.666667-42.666667v-256a42.666667 42.666667 0 0 1 85.333334 0V512a42.666667 42.666667 0 0 1-42.666667 42.666667z"  horiz-adv-x="1024" />

    
    <glyph glyph-name="phone-outline" unicode="&#59003;" d="M742.4-42.66666699999996A657.92 657.92 0 0 0 85.333333 614.4 196.266667 196.266667 0 0 0 281.6 810.666667a168.106667 168.106667 0 0 0 32.853333-2.986667 161.706667 161.706667 0 0 0 30.72-7.68 42.666667 42.666667 0 0 0 27.733334-32l58.453333-256a42.666667 42.666667 0 0 0-11.093333-39.253333c-5.546667-5.973333-5.973333-6.4-58.453334-33.706667a422.826667 422.826667 0 0 1 207.786667-208.64c27.733333 52.906667 28.16 53.333333 34.133333 58.88a42.666667 42.666667 0 0 0 39.253334 11.093333l256-58.453333a42.666667 42.666667 0 0 0 30.72-27.733333 185.173333 185.173333 0 0 0 8.106666-31.146667 203.52 203.52 0 0 0 2.56-32.426667A196.266667 196.266667 0 0 0 742.4-42.66666699999996zM281.6 725.333333A111.36 111.36 0 0 1 170.666667 614.4 572.16 572.16 0 0 1 742.4 42.66666699999996a111.36 111.36 0 0 1 110.933333 110.933333v14.08L655.36 213.33333300000004l-12.373333-23.466666c-19.2-37.12-33.28-64-69.12-49.493334a505.6 505.6 0 0 0-306.346667 307.626667c-15.36 33.28 13.653333 48.64 50.346667 67.84L341.333333 527.36 295.68 725.333333z"  horiz-adv-x="1024" />

    
    <glyph glyph-name="pin-outline" unicode="&#59004;" d="M512 810.666667a341.333333 341.333333 0 0 1-341.333333-337.92c0-233.813333 300.8-494.08 313.6-505.173334a42.666667 42.666667 0 0 1 55.466666 0C554.666667-21.33333300000004 853.333333 238.93333299999995 853.333333 472.746667A341.333333 341.333333 0 0 1 512 810.666667z m0-753.066667c-71.253333 67.84-256 256-256 415.146667a256 256 0 0 0 512 0c0-157.866667-184.746667-347.306667-256-415.146667zM512 640a149.333333 149.333333 0 1 1 149.333333-149.333333A149.333333 149.333333 0 0 1 512 640z m0-213.333333a64 64 0 1 0 64 64A64 64 0 0 0 512 426.666667z"  horiz-adv-x="1024" />

    
    <glyph glyph-name="play-circle-outline" unicode="&#59005;" d="M512 810.666667a426.666667 426.666667 0 1 1 426.666667-426.666667A426.666667 426.666667 0 0 1 512 810.666667z m0-768a341.333333 341.333333 0 1 0 341.333333 341.333333 341.333333 341.333333 0 0 0-341.333333-341.333333zM526.506667 578.133333a72.533333 72.533333 0 0 1-78.933334 12.8 68.266667 68.266667 0 0 1-42.666666-63.146666v-287.573334a68.266667 68.266667 0 0 1 42.666666-63.146666 71.68 71.68 0 0 1 29.44-6.4 74.24 74.24 0 0 1 49.493334 19.2L682.666667 333.653333a68.266667 68.266667 0 0 1 0 100.693334z m-35.84-305.066666V494.933333l119.893333-110.933333z"  horiz-adv-x="1024" />

    


  </font>
</defs>
</svg>
